#N canvas 92 117 851 607 12;
#X obj 47 106 phasor~;
#X obj 47 12 loadbang;
#X obj 47 36 nbx 5 17 -1e+37 1e+37 0 1 empty empty empty 0 -10 0 12 #fcfcfc #000000 #000000 92 256;
#X floatatom 47 83 5 0 0 0 - - - 0;
#X obj 23 12 bng 19 250 50 0 empty empty empty 0 -10 0 12 #fcfcfc #000000 #000000;
#X msg 93 82 0;
#X obj 48 511 output~;
#X obj 47 291 wrap~;
#X obj 47 130 *~;
#X floatatom 108 107 5 0 0 0 - - - 0;
#N canvas 0 22 450 278 (subpatch) 0;
#X array bd-curve 64 float 3;
#A 0 -0.0428571 -0.0714284 -0.0857141 -0.114285 -0.028571 0.0428575 0.114286 0.142857 0.185714 -0.214285 -0.214285 -0.228571 -0.242857 -0.257142 -0.257142 -0.257142 -0.257142 -0.257142 -0.257142 -0.257142 -0.271428 0.00892867 0.0142858 0.0207144 0.0271429 0.0335715 0.0400001 0.0464286 0.0528572 0.0592857 0.0657143 0.0721429 0.0785714 0.085 0.0914285 0.0857143 0.0714287 0.0285716 2.38419e-07 0.123571 0.13 0.136428 0.142857 0.148979 0.155102 0.128571 0.167347 0.173469 0.179592 0.185714 0.114286 0.197959 0.204081 0.210204 0.216326 0.222449 0.642856 0.234693 -0.214285 -0.385713 -0.542855 -0.671426 -0.828569 -0.871426;
#X coords 0 1 64 -1 200 140 1 0 0;
#X restore 246 40 graph;
#X obj 47 154 wrap~;
#X obj 47 58 expr $f1 / 240;
#X obj 47 315 lerp/phase2trig~;
#X obj 47 376 *~ 50;
#N canvas 121 146 887 335 membrane 1;
#X obj 191 120 sig~ 1;
#X obj 191 144 -~, f 8;
#X obj 191 168 *~;
#X obj 258 168 *~ 0.01;
#X obj 19 296 outlet~;
#X obj 191 192 *~, f 10;
#X obj 18 16 inlet~ trig;
#X obj 244 96 lerp/env_ad~ 1 800, f 19;
#X obj 19 271 *~;
#N canvas 582 229 426 287 trifb 1;
#X obj 24 26 inlet~ trig;
#X obj 239 27 inlet~ penv;
#X obj 133 102 samphold~;
#X obj 193 78 *~ -1;
#X obj 133 150 *~;
#X obj 24 198 +~ 0.75;
#X obj 24 174 lerp/trig2phase~;
#X obj 24 221 lerp/trifb~, f 34;
#N canvas 663 193 253 242 pitch-env 0;
#X obj 131 156 *~;
#X obj 131 180 +~ 1;
#X obj 17 17 inlet~ trig;
#X obj 149 17 inlet~ penv;
#X obj 131 204 outlet~;
#X obj 17 84 lerp/env_d~ 225;
#X obj 131 108 *~;
#X obj 131 132 *~ 0.6;
#X obj 17 108 *~ 0.4;
#X obj 131 84 lerp/env_d~ 70;
#X connect 0 0 1 0;
#X connect 1 0 4 0;
#X connect 2 0 5 0;
#X connect 2 0 9 0;
#X connect 3 0 0 1;
#X connect 5 0 8 0;
#X connect 6 0 7 0;
#X connect 7 0 0 0;
#X connect 8 0 0 0;
#X connect 9 0 6 0;
#X connect 9 0 6 1;
#X restore 151 126 pd pitch-env;
#X f 13;
#X obj 24 245 outlet~;
#X obj 330 27 inlet~ fb;
#X obj 292 242 lerp/monitor~;
#X connect 0 0 6 0;
#X connect 0 0 2 0;
#X connect 0 0 3 0;
#X connect 0 0 8 0;
#X connect 1 0 8 1;
#X connect 2 0 4 0;
#X connect 3 0 2 1;
#X connect 4 0 6 1;
#X connect 5 0 7 0;
#X connect 6 0 5 0;
#X connect 7 0 9 0;
#X connect 8 0 4 1;
#X connect 10 0 7 1;
#X restore 19 216 pd trifb;
#X f 25;
#X obj 105 16 inlet~ penv;
#X obj 37 247 lerp/env_ad~ 1 800, f 19;
#X obj 315 283 lerp/monitor~;
#X obj 309 17 inlet~ attack;
#X obj 410 17 inlet~ decay;
#X obj 509 21 inlet~ feedback;
#X connect 0 0 1 0;
#X connect 1 0 2 0;
#X connect 1 0 2 1;
#X connect 2 0 5 0;
#X connect 3 0 5 1;
#X connect 5 0 9 2;
#X connect 6 0 7 0;
#X connect 6 0 9 0;
#X connect 6 0 11 0;
#X connect 7 0 1 1;
#X connect 8 0 4 0;
#X connect 9 0 8 0;
#X connect 10 0 9 1;
#X connect 10 0 12 0;
#X connect 11 0 8 1;
#X connect 13 0 7 1;
#X connect 14 0 7 2;
#X connect 14 0 11 2;
#X connect 15 0 3 0;
#X restore 49 414 pd membrane;
#X obj 47 339 lerp/trigchange~;
#X obj 47 267 tabread4~ bd-curve;
#X obj 177 349 nbx 5 17 -1e+37 1e+37 0 1 empty empty empty 0 -10 0 12 #fcfcfc #000000 #000000 6 256;
#X obj 177 366 nbx 5 17 -1e+37 1e+37 0 1 empty empty empty 0 -10 0 12 #fcfcfc #000000 #000000 384 256;
#X obj 177 383 nbx 5 17 -1e+37 1e+37 0 1 empty empty empty 0 -10 0 12 #fcfcfc #000000 #000000 499 256;
#X obj 177 400 nbx 5 17 -1e+37 1e+37 0 1 empty empty empty 0 -10 0 12 #fcfcfc #000000 #000000 151 256;
#X obj 49 467 *~ 0.5;
#X obj 272 286 wrap~;
#X obj 272 310 lerp/phase2trig~;
#N canvas 121 146 887 335 membrane 0;
#X obj 191 120 sig~ 1;
#X obj 191 144 -~, f 8;
#X obj 191 168 *~;
#X obj 258 168 *~ 0.01;
#X obj 19 296 outlet~;
#X obj 191 192 *~, f 10;
#X obj 18 16 inlet~ trig;
#X obj 244 96 lerp/env_ad~ 1 800, f 19;
#X obj 19 271 *~;
#N canvas 582 229 426 287 trifb 0;
#X obj 24 26 inlet~ trig;
#X obj 239 27 inlet~ penv;
#X obj 133 102 samphold~;
#X obj 193 78 *~ -1;
#X obj 133 150 *~;
#X obj 24 198 +~ 0.75;
#X obj 24 174 lerp/trig2phase~;
#X obj 24 221 lerp/trifb~, f 34;
#N canvas 663 193 253 242 pitch-env 0;
#X obj 131 156 *~;
#X obj 131 180 +~ 1;
#X obj 17 17 inlet~ trig;
#X obj 149 17 inlet~ penv;
#X obj 131 204 outlet~;
#X obj 17 84 lerp/env_d~ 225;
#X obj 131 108 *~;
#X obj 131 132 *~ 0.6;
#X obj 17 108 *~ 0.4;
#X obj 131 84 lerp/env_d~ 70;
#X connect 0 0 1 0;
#X connect 1 0 4 0;
#X connect 2 0 5 0;
#X connect 2 0 9 0;
#X connect 3 0 0 1;
#X connect 5 0 8 0;
#X connect 6 0 7 0;
#X connect 7 0 0 0;
#X connect 8 0 0 0;
#X connect 9 0 6 0;
#X connect 9 0 6 1;
#X restore 151 126 pd pitch-env;
#X f 13;
#X obj 24 245 outlet~;
#X obj 330 27 inlet~ fb;
#X obj 292 242 lerp/monitor~;
#X connect 0 0 6 0;
#X connect 0 0 2 0;
#X connect 0 0 3 0;
#X connect 0 0 8 0;
#X connect 1 0 8 1;
#X connect 2 0 4 0;
#X connect 3 0 2 1;
#X connect 4 0 6 1;
#X connect 5 0 7 0;
#X connect 6 0 5 0;
#X connect 7 0 9 0;
#X connect 8 0 4 1;
#X connect 10 0 7 1;
#X restore 19 216 pd trifb;
#X f 25;
#X obj 105 16 inlet~ penv;
#X obj 37 247 lerp/env_ad~ 1 800, f 19;
#X obj 315 283 lerp/monitor~;
#X obj 309 17 inlet~ attack;
#X obj 410 17 inlet~ decay;
#X obj 509 21 inlet~ feedback;
#X connect 0 0 1 0;
#X connect 1 0 2 0;
#X connect 1 0 2 1;
#X connect 2 0 5 0;
#X connect 3 0 5 1;
#X connect 5 0 9 2;
#X connect 6 0 7 0;
#X connect 6 0 9 0;
#X connect 6 0 11 0;
#X connect 7 0 1 1;
#X connect 8 0 4 0;
#X connect 9 0 8 0;
#X connect 10 0 9 1;
#X connect 10 0 12 0;
#X connect 11 0 8 1;
#X connect 13 0 7 1;
#X connect 14 0 7 2;
#X connect 14 0 11 2;
#X connect 15 0 3 0;
#X restore 274 409 pd membrane;
#X obj 272 334 lerp/trigchange~;
#X obj 406 355 nbx 5 17 -1e+37 1e+37 0 1 empty empty empty 0 -10 0 12 #fcfcfc #000000 #000000 677 256;
#X obj 406 372 nbx 5 17 -1e+37 1e+37 0 1 empty empty empty 0 -10 0 12 #fcfcfc #000000 #000000 0 256;
#X obj 406 389 nbx 5 17 -1e+37 1e+37 0 1 empty empty empty 0 -10 0 12 #fcfcfc #000000 #000000 155 256;
#X obj 406 406 nbx 5 17 -1e+37 1e+37 0 1 empty empty empty 0 -10 0 12 #fcfcfc #000000 #000000 660 256;
#N canvas 0 22 450 278 (subpatch) 0;
#X array snare-curve 64 float 3;
#A 0 0.142857 0.142857 0.142857 0.0857143 0.142857 0.142857 0.128571 0.157142 0.185714 0.185714 0.185714 0.185714 0.185714 0.171429 0.142857 0.128571 0.185714 0.185714 0.180954 0.190478 0.200002 0.209526 0.21905 0.228573 0.142857 0.240002 0.245716 0.251431 0.257145 0.262859 0.268574 0.274288 0.280002 0.285717 0.128571 0.295241 0.300002 0.304764 0.309526 0.314288 0.31905 0.128571 0.328574 0.333336 0.338098 0.34286 0.344901 0.346942 0.348982 0.351023 0.353064 0.355105 0.357146 0.357146 0.357146 0.357146 0.357146 0.357146 0.357146 0.357146 0.357146 0.357146 0.357146 0.328574;
#X coords 0 1 64 -1 200 140 1 0 0;
#X restore 476 44 graph;
#X obj 272 262 tabread4~ snare-curve;
#X obj 272 371 *~ 150;
#X obj 44 219 *~;
#X obj 62 193 nbx 5 17 -1e+37 1e+37 0 1 empty empty empty 0 -10 0 12 #fcfcfc #000000 #000000 15 256;
#X obj 149 213 *~;
#X obj 167 187 nbx 5 17 -1e+37 1e+37 0 1 empty empty empty 0 -10 0 12 #fcfcfc #000000 #000000 60 256;
#X obj 274 457 *~ 0.2;
#X obj 274 433 else/highpass~ 1000 0.61;
#X obj 528 395 block~;
#X connect 0 0 8 0;
#X connect 1 0 2 0;
#X connect 2 0 12 0;
#X connect 3 0 0 0;
#X connect 4 0 2 0;
#X connect 4 0 5 0;
#X connect 5 0 0 1;
#X connect 7 0 13 0;
#X connect 8 0 11 0;
#X connect 9 0 8 1;
#X connect 11 0 34 0;
#X connect 11 0 36 0;
#X connect 12 0 3 0;
#X connect 13 0 16 0;
#X connect 14 0 15 0;
#X connect 15 0 22 0;
#X connect 16 0 14 0;
#X connect 17 0 7 0;
#X connect 18 0 15 1;
#X connect 19 0 15 2;
#X connect 20 0 15 3;
#X connect 21 0 15 4;
#X connect 22 0 6 0;
#X connect 22 0 6 1;
#X connect 23 0 24 0;
#X connect 24 0 26 0;
#X connect 25 0 39 0;
#X connect 26 0 33 0;
#X connect 27 0 25 1;
#X connect 28 0 25 2;
#X connect 29 0 25 3;
#X connect 30 0 25 4;
#X connect 32 0 23 0;
#X connect 33 0 25 0;
#X connect 34 0 17 0;
#X connect 35 0 34 1;
#X connect 36 0 32 0;
#X connect 37 0 36 1;
#X connect 38 0 22 0;
#X connect 39 0 38 0;
