#N canvas 92 117 851 548 12;
#X obj 157 106 phasor~;
#X obj 157 12 loadbang;
#X obj 157 36 nbx 5 17 -1e+37 1e+37 0 1 empty empty empty 0 -10 0 12 #fcfcfc #000000 #000000 138 256;
#X floatatom 157 83 5 0 0 0 - - - 0;
#X obj 133 12 bng 19 250 50 0 empty empty empty 0 -10 0 12 #fcfcfc #000000 #000000;
#X msg 203 82 0;
#X obj 158 446 output~;
#X obj 157 226 wrap~;
#X obj 157 130 *~;
#X floatatom 218 107 5 0 0 0 - - - 0;
#X floatatom 214 316 5 0 0 0 - - - 0;
#X floatatom 260 318 5 0 0 0 - - - 0;
#N canvas 0 22 450 278 (subpatch) 0;
#X array curve 64 float 3;
#A 0 -0.114285 -0.107143 -0.0999997 -0.0928568 -0.085714 -0.0785711 -0.0714283 -0.0660712 -0.060714 -0.0553569 -0.428571 -0.385714 -0.371428 -0.342857 -0.314286 -0.0232141 -0.017857 -0.0124999 -0.00714272 -0.00178559 0.00357154 0.00892867 0.0142858 0.0207144 0.0271429 0.0335715 0.0400001 0.0464286 0.0528572 0.0592857 0.0657143 0.0721429 0.0785714 0.085 0.0914285 0.0857143 0.0714287 0.0285716 2.38419e-07 0.123571 0.13 0.136428 0.142857 0.148979 0.155102 0.161224 0.167347 0.173469 0.179592 0.185714 0.114286 0.197959 0.204081 0.210204 0.216326 0.222449 0.228571 0.234693 0.240816 0.246938 0.253061 0.259183 0.265306 0.257143;
#X coords 0 1 64 -1 200 140 1 0 0;
#X restore 281 27 graph;
#X obj 157 154 wrap~;
#X obj 157 58 expr $f1 / 240;
#X obj 157 250 lerp/phase2trig~;
#X obj 157 311 *~ 50;
#X obj 158 379 +~;
#X floatatom 321 314 5 0 0 0 - - - 0;
#N canvas 121 146 511 335 membrane 0;
#X obj 191 120 sig~ 1;
#X obj 191 144 -~, f 8;
#X obj 191 168 *~;
#X obj 258 168 *~ 0.01;
#X obj 19 296 outlet~;
#X obj 191 192 *~, f 10;
#X obj 18 16 inlet~ trig;
#X obj 244 96 lerp/env_ad~ 1 800, f 19;
#X obj 19 271 *~;
#N canvas 582 229 426 287 trifb 0;
#X obj 24 26 inlet~ trig;
#X obj 239 27 inlet~ penv;
#X obj 133 102 samphold~;
#X obj 193 78 *~ -1;
#X obj 133 150 *~;
#X obj 24 198 +~ 0.75;
#X obj 24 174 lerp/trig2phase~;
#X obj 24 221 lerp/trifb~, f 34;
#N canvas 663 193 253 242 pitch-env 0;
#X obj 131 156 *~;
#X obj 131 180 +~ 1;
#X obj 17 17 inlet~ trig;
#X obj 149 17 inlet~ penv;
#X obj 131 204 outlet~;
#X obj 17 84 lerp/env_d~ 225;
#X obj 131 108 *~;
#X obj 131 132 *~ 0.6;
#X obj 17 108 *~ 0.4;
#X obj 131 84 lerp/env_d~ 70;
#X connect 0 0 1 0;
#X connect 1 0 4 0;
#X connect 2 0 5 0;
#X connect 2 0 9 0;
#X connect 3 0 0 1;
#X connect 5 0 8 0;
#X connect 6 0 7 0;
#X connect 7 0 0 0;
#X connect 8 0 0 0;
#X connect 9 0 6 0;
#X connect 9 0 6 1;
#X restore 151 126 pd pitch-env;
#X f 13;
#X obj 24 245 outlet~;
#X obj 330 27 inlet~ fb;
#X obj 292 242 lerp/monitor~;
#X connect 0 0 6 0;
#X connect 0 0 2 0;
#X connect 0 0 3 0;
#X connect 0 0 8 0;
#X connect 1 0 8 1;
#X connect 2 0 4 0;
#X connect 3 0 2 1;
#X connect 4 0 6 1;
#X connect 5 0 7 0;
#X connect 6 0 5 0;
#X connect 7 0 9 0;
#X connect 8 0 4 1;
#X connect 10 0 7 1;
#X restore 19 216 pd trifb;
#X f 25;
#X obj 105 16 inlet~ penv;
#X obj 37 247 lerp/env_ad~ 1 800, f 19;
#X obj 357 147 lerp/monitor~;
#X obj 309 17 inlet~ attack;
#X obj 410 17 inlet~ decay;
#X obj 258 144 sig~ 80;
#X connect 0 0 1 0;
#X connect 1 0 2 0;
#X connect 1 0 2 1;
#X connect 2 0 5 0;
#X connect 3 0 5 1;
#X connect 5 0 9 2;
#X connect 6 0 7 0;
#X connect 6 0 9 0;
#X connect 6 0 11 0;
#X connect 7 0 1 1;
#X connect 7 0 12 0;
#X connect 8 0 4 0;
#X connect 9 0 8 0;
#X connect 10 0 9 1;
#X connect 11 0 8 1;
#X connect 13 0 7 1;
#X connect 14 0 7 2;
#X connect 14 0 11 2;
#X connect 15 0 3 0;
#X restore 159 349 pd membrane;
#X obj 157 274 lerp/trigchange~;
#X obj 157 178 *~ 62;
#X obj 157 202 tabread4~ curve;
#X obj 356 206 osc~ 0.5;
#X obj 356 230 expr~ ($v1 + 1) * 0.5 * 400 + 400;
#X obj 460 443 lerp/linfb-tri~;
#X connect 0 0 8 0;
#X connect 1 0 2 0;
#X connect 2 0 14 0;
#X connect 3 0 0 0;
#X connect 4 0 2 0;
#X connect 4 0 5 0;
#X connect 5 0 0 1;
#X connect 7 0 15 0;
#X connect 8 0 13 0;
#X connect 9 0 8 1;
#X connect 10 0 19 1;
#X connect 11 0 19 2;
#X connect 13 0 21 0;
#X connect 14 0 3 0;
#X connect 15 0 20 0;
#X connect 16 0 19 0;
#X connect 17 0 6 0;
#X connect 17 0 6 1;
#X connect 18 0 19 3;
#X connect 19 0 17 0;
#X connect 20 0 16 0;
#X connect 21 0 22 0;
#X connect 22 0 7 0;
#X connect 23 0 24 0;
