#N canvas 703 224 511 197 12;
#X obj 123 68 inlet~ attack;
#X obj 123 20 loadbang;
#X obj 123 44 \$1;
#X text 283 30 Signal-driven AD Envelope. Attack stage is linear \, decay is exponential. Envelope restarts when retriggered., f 28;
#N canvas 527 97 467 289 attack 0;
#X obj 120 15 inlet~ trig;
#X obj 313 15 inlet~ attack;
#X obj 279 87 /~;
#X obj 279 63 sig~ 1000;
#X obj 120 209 outlet~ trig;
#X obj 20 209 outlet~ value;
#X obj 216 161 fexpr~ $x[0] == 1 && $x[-1] != 1;
#X obj 191 111 trig2phase~ 1;
#X obj 191 135 min~ 1;
#X obj 313 39 clip~ 0 1000;
#X obj 120 185 expr~ if($v3 == 0 \, $v1 \, $v2);
#X connect 0 0 7 0;
#X connect 0 0 10 0;
#X connect 1 0 9 0;
#X connect 2 0 7 1;
#X connect 3 0 2 0;
#X connect 6 0 10 1;
#X connect 7 0 8 0;
#X connect 8 0 5 0;
#X connect 8 0 6 0;
#X connect 9 0 2 1;
#X connect 9 0 10 2;
#X connect 10 0 4 0;
#X restore 21 92 pd attack;
#X f 15;
#X obj 21 116 outlet~ value;
#X obj 123 116 outlet~ trig;
#X obj 21 68 inlet~ trig;
#X connect 0 0 4 1;
#X connect 1 0 2 0;
#X connect 2 0 0 0;
#X connect 4 0 5 0;
#X connect 4 1 6 0;
#X connect 7 0 4 0;
