#N canvas 183 117 518 484 12;
#X obj 189 44 loadbang;
#X obj 189 68 \$1;
#X text 309 30 Signal-driven AD Envelope. Attack stage is linear \, decay is exponential. Envelope restarts when retriggered., f 28;
#X obj 47 308 outlet~ value;
#X obj 189 92 inlet~ decay;
#X obj 171 116 /~;
#X obj 171 20 sig~ 1000;
#X obj 65 164 loadbang;
#X msg 65 212 1 \$1;
#X obj 65 236 -;
#X obj 47 260 *~;
#X obj 65 188 1e-08;
#X obj 47 284 +~ 1e-08;
#X obj 147 308 expr~ $v1 == 1e-08;
#X obj 147 332 trigchange~;
#X obj 147 406 outlet~ end;
#X obj 47 140 slop~ 0 0 1 0 1e+09, f 30;
#X obj 47 92 inlet~ trig;
#X obj 47 116 expr~ $v1 != 0;
#X connect 0 0 1 0;
#X connect 1 0 4 0;
#X connect 4 0 5 1;
#X connect 5 0 16 3;
#X connect 6 0 5 0;
#X connect 7 0 11 0;
#X connect 8 0 9 0;
#X connect 9 0 10 1;
#X connect 10 0 12 0;
#X connect 11 0 8 0;
#X connect 12 0 3 0;
#X connect 12 0 13 0;
#X connect 13 0 14 0;
#X connect 14 0 15 0;
#X connect 16 0 10 0;
#X connect 17 0 18 0;
#X connect 18 0 16 0;
