#N canvas 183 117 518 297 12;
#X obj 162 140 inlet~ decay;
#X obj 109 68 inlet~ attack;
#X obj 109 20 loadbang;
#X obj 109 44 \$1;
#X obj 162 92 loadbang;
#X obj 162 116 \$2;
#X obj 21 189 clip~ 0 1;
#X text 283 30 Signal-driven AD Envelope. Attack stage is linear \, decay is exponential. Envelope restarts when retriggered., f 28;
#X obj 21 213 outlet~ value;
#X obj 162 214 outlet~ trig;
#X obj 21 116 wrap~;
#X obj 21 92 env_a~, f 13;
#X obj 109 164 env_d~, f 8;
#X obj 21 67 inlet~ trig;
#X connect 0 0 12 1;
#X connect 1 0 11 1;
#X connect 2 0 3 0;
#X connect 3 0 1 0;
#X connect 4 0 5 0;
#X connect 5 0 0 0;
#X connect 6 0 8 0;
#X connect 10 0 6 0;
#X connect 11 0 10 0;
#X connect 11 1 12 0;
#X connect 12 0 6 0;
#X connect 12 1 9 0;
#X connect 13 0 11 0;
