#N canvas 290 151 856 513 12;
#X obj 134 155 unpack f s;
#X obj 134 179 send, f 10;
#X obj 134 107 list append \$0;
#X obj 146 59 list split 2;
#X obj 186 83 t b l;
#X obj 146 11 loadbang;
#X msg 134 131 \$2 \$3-\$1-m;
#X obj 560 11 r \$0-fb-m;
#X obj 560 59 s~ \$0-fb;
#X obj 470 308 r~ \$0-fb;
#X obj 60 269 s~ \$0-trig;
#X obj 560 35 inlet~ fb;
#X obj 456 284 max~ 0;
#X obj 395 35 inlet~ mod;
#X obj 395 59 s~ \$0-mod;
#X obj 456 260 r~ \$0-mod;
#X obj 403 284 sig~ 1;
#X obj 403 308 -~, f 8;
#X obj 403 332 *~;
#X obj 287 380 trifb~, f 17;
#X obj 249 205 r~ \$0-trig;
#X obj 249 333 trig2phase~;
#X obj 60 59 inlet~ trig;
#X obj 323 285 samphold~;
#X obj 383 261 *~ -1;
#X obj 341 199 *~;
#X obj 341 127 env_d~ 50;
#X obj 262 127 env_d~ 125;
#X obj 262 103 r~ \$0-trig;
#X obj 341 103 r~ \$0-trig;
#X obj 341 151 *~ 0.5;
#X obj 323 309 *~;
#X obj 341 223 +~ 1;
#X obj 249 357 +~ 0.75;
#X obj 470 332 *~ 0.01;
#X obj 287 404 outlet~;
#X obj 403 356 *~, f 10;
#X obj 146 35 list store fb \$1 penv \$2;
#X obj 262 151 *~ 0.5;
#X obj 359 175 r~ \$0-penv;
#X obj 632 11 r \$0-penv-m;
#X obj 632 35 inlet~ penv;
#X obj 632 59 s~ \$0-penv;
#X connect 0 0 1 0;
#X connect 0 1 1 1;
#X connect 2 0 6 0;
#X connect 3 0 2 0;
#X connect 3 1 4 0;
#X connect 4 0 37 0;
#X connect 4 1 37 1;
#X connect 5 0 37 0;
#X connect 6 0 0 0;
#X connect 7 0 11 0;
#X connect 9 0 34 0;
#X connect 11 0 8 0;
#X connect 12 0 17 1;
#X connect 13 0 14 0;
#X connect 15 0 12 0;
#X connect 16 0 17 0;
#X connect 17 0 18 0;
#X connect 17 0 18 1;
#X connect 18 0 36 0;
#X connect 19 0 35 0;
#X connect 20 0 24 0;
#X connect 20 0 23 0;
#X connect 20 0 21 0;
#X connect 21 0 33 0;
#X connect 22 0 10 0;
#X connect 22 1 2 0;
#X connect 23 0 31 0;
#X connect 24 0 23 1;
#X connect 25 0 32 0;
#X connect 26 0 30 0;
#X connect 27 0 38 0;
#X connect 28 0 27 0;
#X connect 29 0 26 0;
#X connect 30 0 25 0;
#X connect 31 0 21 1;
#X connect 32 0 31 1;
#X connect 33 0 19 0;
#X connect 34 0 36 1;
#X connect 36 0 19 1;
#X connect 37 0 3 0;
#X connect 38 0 25 0;
#X connect 39 0 25 1;
#X connect 40 0 41 0;
#X connect 41 0 42 0;
