#N canvas 179 204 450 300 12;
#X obj 241 171 snapshot~;
#X floatatom 100 120 14 0 0 0 - \$0-val-s \$0-val-r 0;
#X obj 246 15 loadbang;
#X obj 246 64 expr 1000 / 60;
#X obj 245 94 t b f;
#X obj 241 147 metro;
#X obj 153 33 inlet~;
#X obj 241 195 s \$0-val-s;
#X obj 321 27 bng 19 250 50 0 empty empty empty 0 -10 0 12 #fcfcfc #000000 #000000;
#X text 105 101 lerp/monitor~;
#X connect 0 0 7 0;
#X connect 2 0 3 0;
#X connect 3 0 4 0;
#X connect 4 0 5 0;
#X connect 4 1 5 1;
#X connect 5 0 0 0;
#X connect 6 0 0 0;
#X connect 8 0 3 0;
#X coords 0 -1 1 1 100 38 2 100 100;
