#N canvas 381 425 323 194 12;
#X obj 14 15 inlet~ phase;
#X obj 14 111 linfb_tri_int~, f 32;
#X obj 32 39 loadbang;
#X obj 32 63 expr 8*atan(1);
#X obj 14 87 *~;
#X obj 235 87 inlet~ fb;
#X obj 14 159 outlet~;
#X obj 161 87 sig~ 1;
#X obj 87 87 sig~ 1;
#X connect 0 0 4 0;
#X connect 1 0 6 0;
#X connect 2 0 3 0;
#X connect 3 0 4 1;
#X connect 4 0 1 0;
#X connect 5 0 1 3;
#X connect 7 0 1 2;
#X connect 8 0 1 1;
