#N canvas 585 155 323 271 12;
#X obj 58 20 inlet~ trig;
#X obj 19 236 outlet~ time;
#X obj 19 212 rpole~;
#X obj 183 116 samplerate~;
#X obj 183 92 loadbang;
#X obj 253 92 bng 19 250 50 0 empty empty empty 0 -10 0 12 #fcfcfc #000000 #000000;
#X obj 58 44 expr~ $v1 == 0;
#X obj 165 68 inlet~ freq;
#X obj 165 20 loadbang;
#X obj 165 44 \$1;
#X obj 165 188 *~;
#X msg 183 140 1 \$1;
#X obj 183 164 /;
#X connect 0 0 6 0;
#X connect 2 0 1 0;
#X connect 3 0 11 0;
#X connect 4 0 3 0;
#X connect 5 0 3 0;
#X connect 6 0 2 1;
#X connect 7 0 10 0;
#X connect 8 0 9 0;
#X connect 9 0 7 0;
#X connect 10 0 2 0;
#X connect 11 0 12 0;
#X connect 12 0 10 1;
